<svg width="117" height="40" viewBox="0 0 117 40" fill="none" xmlns="http://www.w3.org/2000/svg">
<g id="Logo">
<path id="bg" d="M0.875 11.0345C0.875 4.94031 5.81531 0 11.9095 0H29.7853C35.8795 0 40.8198 4.94031 40.8198 11.0345V28.9103C40.8198 35.0045 35.8795 39.9448 29.7853 39.9448H11.9095C5.81531 39.9448 0.875 35.0045 0.875 28.9103V11.0345Z" fill="#E82840"/>
<g id="Shape">
<path id="Vector" d="M25.9865 22.8992C25.9623 22.8992 25.9381 22.8992 25.9138 22.8959C25.3784 22.8474 25.0853 22.4144 24.8683 21.9958L24.8639 21.9869L24.8606 21.9781C24.454 20.9954 23.631 20.3982 22.6615 20.3795C22.6262 20.3773 22.602 20.3762 22.5777 20.3762C22.3949 20.3762 22.2032 20.4192 21.9993 20.4643C21.7845 20.5128 21.563 20.5613 21.3372 20.5613C21.1631 20.5613 21.0078 20.5326 20.8623 20.4721C20.5891 20.3575 20.3853 20.1173 20.3026 19.8121C20.2145 19.4882 20.274 19.1422 20.4635 18.8888C20.6299 18.6674 20.8436 18.5352 21.1124 18.3677C21.1818 18.3248 21.2557 18.2785 21.3372 18.2267L22.3387 17.5987L22.9545 17.2142C23.1804 17.0721 23.4096 16.9288 23.6321 16.79L24.075 16.5135C24.1059 16.4937 24.14 16.4716 24.1742 16.4496C24.5289 16.205 24.9256 15.9736 25.3563 15.9736C25.6175 15.9736 25.8709 16.0618 26.1088 16.2358L26.1375 16.259C26.5914 16.6556 26.62 17.05 26.6575 17.5491C26.6663 17.6648 26.6751 17.7893 26.6906 17.9259C26.6906 17.9259 26.8602 19.9322 26.8944 20.3487C26.901 20.5084 26.9153 20.6649 26.9296 20.7993L26.9429 20.9183C26.9924 21.3623 27.0431 21.8217 26.9384 22.1809C26.8393 22.4728 26.6178 22.7097 26.3435 22.8243C26.23 22.8728 26.1099 22.897 25.9876 22.897L25.9865 22.8992ZM25.6637 21.6146C25.8014 21.8757 25.9094 22.0112 25.9876 22.0189C25.992 22.0178 25.9943 22.0167 25.9998 22.0145C26.0405 21.998 26.078 21.9594 26.0956 21.9208C26.143 21.7236 26.1011 21.3369 26.067 21.0251L26.0526 20.894C26.0383 20.7596 26.0207 20.5844 26.0141 20.4059C25.9799 19.995 25.8125 18.0152 25.8125 18.0152C25.797 17.8719 25.7871 17.7375 25.7783 17.6196C25.7431 17.1448 25.7232 17.0743 25.5723 16.9388C25.472 16.8682 25.407 16.8583 25.3574 16.8583C25.3486 16.8583 25.3409 16.8583 25.3321 16.8583C25.1393 16.8727 24.8738 17.0401 24.6644 17.1844L24.6336 17.2032C24.6105 17.2175 24.5818 17.2362 24.5477 17.2594L24.086 17.548C23.869 17.6846 23.6442 17.8257 23.4217 17.9645L22.808 18.349L21.8131 18.9726C21.7569 19.0089 21.7019 19.0431 21.6501 19.075L21.5807 19.1191C21.3361 19.27 21.2314 19.3384 21.1708 19.4188C21.1499 19.4474 21.1345 19.5113 21.1543 19.5818C21.1653 19.6204 21.1851 19.6535 21.2028 19.6601C21.2369 19.6744 21.2832 19.6821 21.3405 19.6821C21.3603 19.6821 21.3801 19.6821 21.4011 19.6799C21.519 19.6711 21.6589 19.6402 21.8076 19.6072C21.9894 19.5664 22.1932 19.5201 22.4169 19.5036C22.4731 19.4992 22.5282 19.497 22.5811 19.497C22.6218 19.497 22.6615 19.4981 22.7011 19.5003C23.988 19.529 25.1261 20.3387 25.667 21.6146H25.6637Z" fill="white"/>
<path id="Vector_2" d="M26.0053 22.237C25.9932 22.237 25.98 22.237 25.9679 22.237C25.7982 22.2216 25.655 22.0729 25.4644 21.7082C24.9598 20.5073 23.8977 19.7471 22.6858 19.7196C22.6042 19.7141 22.5205 19.7152 22.4313 19.7218C22.2297 19.7372 22.0402 19.7791 21.8573 19.8198C21.6997 19.8551 21.551 19.8881 21.4166 19.898C21.2932 19.9069 21.1984 19.8958 21.1158 19.8617C21.0045 19.8154 20.9593 19.7019 20.9417 19.6391C20.9065 19.5113 20.9274 19.3758 20.9946 19.2855C21.0816 19.1709 21.2072 19.0894 21.4628 18.9318C21.5345 18.8877 21.6127 18.8393 21.6964 18.7853L22.6913 18.1617L23.3061 17.7772C23.5286 17.6373 23.7523 17.4973 23.9704 17.3607L24.4276 17.0754C24.4629 17.0522 24.4926 17.0335 24.5224 17.0148L24.5411 17.0027C24.7879 16.833 25.0744 16.6567 25.3167 16.638C25.4534 16.6281 25.5756 16.6666 25.7123 16.7658C25.9436 16.9707 25.9646 17.1216 25.9998 17.5998C26.0086 17.7177 26.0185 17.8499 26.0351 17.9953C26.0351 17.9953 26.2014 19.9752 26.2367 20.396C26.2433 20.5613 26.2587 20.7277 26.2731 20.8698L26.2863 20.9932C26.3259 21.3501 26.3711 21.7545 26.3072 21.9881C26.2708 22.0872 26.186 22.1753 26.0891 22.2161C26.0604 22.2282 26.0329 22.2348 26.0064 22.237H26.0053Z" fill="#F6A7B1"/>
<path id="Vector_3" d="M14.9141 31.0597C14.7467 31.0597 14.5803 31.0498 14.4139 31.03C12.5696 30.9859 10.4554 30.1365 10.0103 27.8812C9.78441 26.7751 9.93976 25.5367 10.4488 24.3997C10.451 24.3942 10.4543 24.3876 10.4576 24.3821L10.7011 23.8786C13.7452 17.5887 15.7735 13.4175 16.732 11.4818C16.7364 11.4718 16.7419 11.4619 16.7474 11.4531C17.6443 9.84457 19.298 8.89817 21.1665 8.92461C22.9811 8.94885 24.6117 9.92389 25.4215 11.4707C25.4259 11.4785 25.4303 11.4873 25.4336 11.4961C25.5085 11.6536 25.7597 12.1715 25.9811 12.6287C26.1828 13.0429 26.3701 13.4285 26.4163 13.5288C26.5717 13.8593 26.4296 14.2526 26.099 14.408C25.7685 14.5633 25.3752 14.4212 25.2198 14.0907C25.1736 13.9926 24.9896 13.6125 24.7913 13.206C24.5632 12.7355 24.3274 12.2508 24.2426 12.0734C23.6477 10.9474 22.4919 10.2654 21.1478 10.2478C19.7772 10.2291 18.5664 10.9166 17.9076 12.0844C16.948 14.0235 14.9229 18.1859 11.8898 24.4559L11.6508 24.9506C11.2563 25.8353 11.134 26.7828 11.3059 27.6223C11.4635 28.4244 11.9317 28.9852 12.736 29.3421C13.4697 29.6671 14.2509 29.7057 14.4734 29.7101C14.4977 29.7101 14.5219 29.7123 14.5461 29.7156C15.8242 29.8809 17.2642 29.1251 18.3042 27.7446C18.3075 27.7402 18.3108 27.7358 18.3141 27.7325C18.6248 27.3392 18.9597 26.8004 19.2319 26.2539C19.3553 26.0072 20.0527 24.3931 20.5143 23.3244C20.7666 22.7394 20.966 22.2777 21.0244 22.1488C21.1742 21.8161 21.5654 21.6685 21.8992 21.8183C22.2319 21.9682 22.3807 22.3593 22.2297 22.6931C22.1757 22.8121 21.9686 23.2936 21.7273 23.8499C21.085 25.3362 20.544 26.5867 20.4151 26.8445C20.2334 27.2103 19.8532 27.9165 19.3564 28.5467C18.1466 30.1508 16.5194 31.062 14.9141 31.062V31.0597Z" fill="white"/>
<path id="Vector_4" d="M27.0522 31.0741C25.1671 31.0741 24.0598 30.1167 23.5167 29.4479C22.1846 27.8074 21.9654 25.2051 22.9856 23.1195C23.1465 22.7912 23.542 22.6557 23.8703 22.8154C24.1986 22.9763 24.3342 23.3718 24.1744 23.7001C23.3855 25.3131 23.5409 27.3799 24.5446 28.615C25.3918 29.6573 26.7062 29.9911 28.3467 29.5801C29.3273 29.2639 29.9608 28.7241 30.2836 27.9297C30.9821 26.211 30.0412 23.645 29.3746 22.4001C29.0243 21.7203 28.7235 21.1309 28.4128 20.5205C28.1903 20.0842 27.9633 19.6369 27.7099 19.1433C27.5435 18.8183 27.6713 18.4206 27.9963 18.2531C28.3214 18.0867 28.7191 18.2145 28.8866 18.5396C29.14 19.0342 29.368 19.4826 29.5906 19.92C29.9002 20.5282 30.1998 21.1165 30.5447 21.7853C30.8884 22.4276 32.5719 25.8078 31.5076 28.4277C31.0328 29.5978 30.0974 30.4108 28.7279 30.846C28.7158 30.8504 28.7026 30.8537 28.6904 30.8571C28.0889 31.0091 27.5446 31.0741 27.0533 31.0741H27.0522Z" fill="white"/>
</g>
<g id="Text">
<path id="Vector_5" d="M55.2607 9.84467C55.5476 9.11198 55.9613 8.57129 56.7569 8.57129H59.0488C59.8444 8.57129 60.2582 9.11198 60.5451 9.84467L68.2813 29.5843C68.5682 30.3169 68.0904 30.8576 67.2949 30.8576H65.0339C64.2703 30.8576 63.6965 30.3169 63.4107 29.5843L62.1373 26.3688H53.6684L52.395 29.5843C52.1081 30.3169 51.5354 30.8576 50.7718 30.8576H48.5109C47.7153 30.8576 47.2375 30.3169 47.5244 29.5843L55.2607 9.84467ZM60.5771 22.3887L57.9023 15.544L55.2276 22.3887H60.576H60.5771Z" fill="#E82840"/>
<path id="Vector_6" d="M90.2876 14.4604C95.3502 14.4604 98.7245 17.8348 98.7245 22.8974C98.7245 27.96 95.3502 31.3344 90.2876 31.3344C85.2249 31.3344 81.8506 27.96 81.8506 22.8974C81.8506 17.8348 85.2249 14.4604 90.2876 14.4604ZM90.2876 27.3553C92.5794 27.3553 94.1077 25.5722 94.1077 22.8985C94.1077 20.2249 92.5794 18.4417 90.2876 18.4417C87.9957 18.4417 86.4674 20.2249 86.4674 22.8985C86.4674 25.5722 87.9957 27.3553 90.2876 27.3553Z" fill="#E82840"/>
<path id="Union" d="M80.6406 29.5833V28.3099L80.6395 28.3077C80.6395 27.5441 80.1297 27.0343 79.3661 27.0343H76.9143C75.322 27.0343 74.4624 26.1118 74.4624 24.5196V18.7573H79.0152C79.7159 18.7573 80.1937 18.2476 80.1937 17.484V16.2106C80.1937 15.447 79.6839 14.9372 78.9203 14.9372H74.4635V9.84369C74.4635 9.08011 73.9537 8.57031 73.1901 8.57031H71.2801C70.5165 8.57031 70.0067 9.04811 70.0067 9.7488V14.9372H67.9002C67.2448 14.9372 66.7129 15.4691 66.7129 16.1245V17.5744C66.7129 18.2299 67.2448 18.7618 67.9002 18.7618H70.0067V23.98C70.0067 28.4368 72.6814 30.8567 77.4572 30.8567H79.3672C80.1308 30.8567 80.6406 30.3469 80.6406 29.5833Z" fill="#E82840"/>
<path id="Vector_7" d="M115.047 27.4039C115.655 27.9193 115.977 28.3993 116.012 28.8428C116.047 29.2875 115.807 29.8028 115.293 30.3877C114.894 30.8324 114.543 31.1248 114.24 31.2649C113.935 31.405 113.631 31.4106 113.327 31.2826C113.023 31.1535 112.661 30.914 112.239 30.5631L105.535 24.9113V29.0889C105.535 29.463 105.494 29.815 105.412 30.1416C105.33 30.4693 105.143 30.7264 104.851 30.914C104.558 31.1005 104.084 31.1943 103.429 31.1943C102.775 31.1943 102.301 31.095 102.008 30.8964C101.716 30.6977 101.534 30.434 101.464 30.1063C101.394 29.7786 101.359 29.4277 101.359 29.0536V10.7452C101.359 10.3479 101.4 9.99042 101.482 9.67484C101.564 9.35925 101.751 9.10215 102.044 8.90242C102.336 8.7038 102.809 8.60449 103.465 8.60449C104.12 8.60449 104.588 8.7038 104.869 8.90242C105.15 9.10104 105.332 9.35925 105.413 9.67484C105.495 9.99042 105.536 10.359 105.536 10.7805V19.6456L110.38 14.9416C110.754 14.5907 111.105 14.3513 111.433 14.2221C111.76 14.0941 112.083 14.082 112.398 14.1868C112.714 14.2917 113.048 14.5444 113.399 14.9416C113.984 15.5739 114.264 16.0947 114.241 16.5041C114.218 16.9135 113.925 17.399 113.364 17.9606L108.624 22.349L115.049 27.4039H115.047Z" fill="#E82840"/>
</g>
</g>
</svg>
