<svg width="20" height="20" viewBox="0 0 20 20" fill="none" xmlns="http://www.w3.org/2000/svg">
<g id="Icon/Clock">
<g id="Vector">
<path fill-rule="evenodd" clip-rule="evenodd" d="M9.79166 2.91666C7.9683 2.91666 6.21962 3.64098 4.93031 4.9303C3.64099 6.21961 2.91666 7.96829 2.91666 9.79166C2.91666 11.1514 3.31988 12.4806 4.07531 13.6112C4.83075 14.7418 5.90447 15.623 7.16072 16.1433C8.41696 16.6637 9.79929 16.7998 11.1329 16.5346C12.4665 16.2693 13.6915 15.6145 14.653 14.653C15.6145 13.6915 16.2693 12.4665 16.5346 11.1329C16.7998 9.79928 16.6637 8.41695 16.1433 7.16071C15.623 5.90447 14.7418 4.83074 13.6112 4.0753C12.4806 3.31987 11.1514 2.91666 9.79166 2.91666ZM4.04642 4.04641C5.57015 2.52268 7.63678 1.66666 9.79166 1.66666C11.3986 1.66666 12.9695 2.14318 14.3057 3.03597C15.6418 3.92875 16.6832 5.1977 17.2982 6.68235C17.9131 8.167 18.0741 9.80067 17.7605 11.3768C17.447 12.9529 16.6732 14.4006 15.5369 15.5369C14.4006 16.6732 12.9529 17.447 11.3768 17.7605C9.80068 18.074 8.16701 17.9131 6.68236 17.2982C5.19771 16.6832 3.92876 15.6418 3.03597 14.3057C2.14319 12.9695 1.66666 11.3986 1.66666 9.79166C1.66666 7.63677 2.52269 5.57015 4.04642 4.04641Z" fill="#9FCD09"/>
<path fill-rule="evenodd" clip-rule="evenodd" d="M10.2083 4.99999C10.5535 4.99999 10.8333 5.27981 10.8333 5.62499V10.2083C10.8333 10.5535 10.5535 10.8333 10.2083 10.8333H6.45833C6.11315 10.8333 5.83333 10.5535 5.83333 10.2083C5.83333 9.86315 6.11315 9.58332 6.45833 9.58332H9.58333V5.62499C9.58333 5.27981 9.86315 4.99999 10.2083 4.99999Z" fill="#9FCD09"/>
</g>
</g>
</svg>
