<svg width="20" height="20" viewBox="0 0 20 20" fill="none" xmlns="http://www.w3.org/2000/svg">
<g id="Icon/pin-location">
<g id="Vector">
<path fill-rule="evenodd" clip-rule="evenodd" d="M9.99999 6.45833C8.96433 6.45833 8.12499 7.29768 8.12499 8.33333C8.12499 9.36899 8.96433 10.2083 9.99999 10.2083C11.0356 10.2083 11.875 9.36899 11.875 8.33333C11.875 7.29768 11.0356 6.45833 9.99999 6.45833ZM6.87499 8.33333C6.87499 6.60732 8.27398 5.20833 9.99999 5.20833C11.726 5.20833 13.125 6.60732 13.125 8.33333C13.125 10.0593 11.726 11.4583 9.99999 11.4583C8.27398 11.4583 6.87499 10.0593 6.87499 8.33333Z" fill="#F7F7F7"/>
<path fill-rule="evenodd" clip-rule="evenodd" d="M9.99999 3.125C7.1235 3.125 4.79166 5.45684 4.79166 8.33333C4.79166 10.282 6.11427 12.4233 7.56287 14.1565C8.27238 15.0053 8.98365 15.7231 9.51815 16.229C9.70285 16.4038 9.86596 16.5529 9.99999 16.6728C10.134 16.5529 10.2971 16.4038 10.4818 16.229C11.0163 15.7231 11.7276 15.0053 12.4371 14.1565C13.8857 12.4233 15.2083 10.282 15.2083 8.33333C15.2083 5.45684 12.8765 3.125 9.99999 3.125ZM9.99999 17.5C9.60328 17.983 9.603 17.9827 9.603 17.9827L9.60137 17.9814L9.59734 17.9781L9.58309 17.9662C9.57087 17.956 9.55329 17.9413 9.53069 17.9222C9.4855 17.8839 9.42024 17.8281 9.33777 17.7559C9.17289 17.6117 8.93894 17.4019 8.65892 17.1369C8.09967 16.6076 7.3526 15.854 6.60377 14.9581C5.13571 13.2017 3.54166 10.7597 3.54166 8.33333C3.54166 4.76649 6.43315 1.875 9.99999 1.875C13.5668 1.875 16.4583 4.76649 16.4583 8.33333C16.4583 10.7597 14.8643 13.2017 13.3962 14.9581C12.6474 15.854 11.9003 16.6076 11.3411 17.1369C11.061 17.4019 10.8271 17.6117 10.6622 17.7559C10.5797 17.8281 10.5145 17.8839 10.4693 17.9222C10.4467 17.9413 10.4291 17.956 10.4169 17.9662L10.4026 17.9781L10.3986 17.9814L10.3974 17.9824C10.3974 17.9824 10.3967 17.983 9.99999 17.5ZM9.99999 17.5L10.3967 17.983C10.1661 18.1723 9.83357 18.1721 9.603 17.9827L9.99999 17.5Z" fill="#F7F7F7"/>
</g>
</g>
</svg>
