<svg width="20" height="20" viewBox="0 0 20 20" fill="none" xmlns="http://www.w3.org/2000/svg">
<g id="Icon/ticket">
<g id="Vector">
<path fill-rule="evenodd" clip-rule="evenodd" d="M1.71284 3.79621C2.14261 3.36644 2.72551 3.125 3.33329 3.125H11.0323C11.0411 3.125 11.0499 3.12519 11.0586 3.12556C11.2968 3.1356 11.5256 3.22098 11.7122 3.36938C11.8987 3.51779 12.0334 3.72157 12.0967 3.95139C12.0985 3.95779 12.1001 3.96421 12.1017 3.97066C12.1513 4.17583 12.2684 4.35836 12.4342 4.48892C12.6001 4.61947 12.805 4.69046 13.0161 4.69046C13.2272 4.69047 13.4321 4.61949 13.598 4.48894C13.7638 4.35839 13.881 4.17586 13.9305 3.97069C13.9321 3.96427 13.9337 3.95786 13.9355 3.95149C13.9988 3.72165 14.1335 3.51784 14.32 3.36942C14.5066 3.22099 14.7354 3.1356 14.9736 3.12556C14.9824 3.12519 14.9912 3.125 15 3.125H16.6666C17.2744 3.125 17.8573 3.36644 18.2871 3.79621C18.7169 4.22598 18.9583 4.80888 18.9583 5.41667V14.5833C18.9583 15.1911 18.7169 15.774 18.2871 16.2038C17.8573 16.6336 17.2744 16.875 16.6666 16.875H15C14.9912 16.875 14.9824 16.8748 14.9736 16.8744C14.7354 16.8644 14.5066 16.779 14.32 16.6306C14.1335 16.4822 13.9988 16.2784 13.9355 16.0485C13.9346 16.0451 13.9336 16.0416 13.9327 16.0381C13.932 16.0352 13.9312 16.0323 13.9305 16.0293C13.881 15.8242 13.7638 15.6416 13.598 15.5111C13.4321 15.3805 13.2272 15.3096 13.0161 15.3096C12.805 15.3096 12.6001 15.3805 12.4342 15.5111C12.2684 15.6417 12.1513 15.8242 12.1017 16.0294C12.1001 16.0358 12.0985 16.0422 12.0967 16.0486C12.0334 16.2785 11.8987 16.4822 11.7122 16.6306C11.5256 16.779 11.2968 16.8644 11.0586 16.8744C11.0499 16.8748 11.0411 16.875 11.0323 16.875H3.33329C2.7255 16.875 2.14261 16.6336 1.71284 16.2038C1.28307 15.774 1.04163 15.1911 1.04163 14.5833V5.41667C1.04163 4.80888 1.28307 4.22598 1.71284 3.79621ZM3.33329 4.375C3.05703 4.375 2.79207 4.48475 2.59672 4.6801C2.40137 4.87545 2.29163 5.1404 2.29163 5.41667V14.5833C2.29163 14.8596 2.40137 15.1246 2.59672 15.3199C2.79207 15.5153 3.05703 15.625 3.33329 15.625H10.9165C11.0453 15.1924 11.305 14.8092 11.6611 14.5289C12.0473 14.2249 12.5245 14.0596 13.0161 14.0596C13.5076 14.0595 13.9849 14.2248 14.3711 14.5288C14.7272 14.8092 14.9869 15.1924 15.1157 15.625H16.6666C16.9429 15.625 17.2078 15.5153 17.4032 15.3199C17.5985 15.1246 17.7083 14.8596 17.7083 14.5833V5.41667C17.7083 5.1404 17.5985 4.87545 17.4032 4.6801C17.2078 4.48475 16.9429 4.375 16.6666 4.375H15.1157C14.9869 4.80759 14.7272 5.19084 14.3711 5.47117C13.9849 5.77518 13.5076 5.94047 13.0161 5.94046C12.5245 5.94045 12.0473 5.77514 11.6611 5.47112C11.305 5.1908 11.0453 4.80757 10.9165 4.375H3.33329Z" fill="#F7F7F7"/>
<path fill-rule="evenodd" clip-rule="evenodd" d="M12.9166 11.6667C13.2618 11.6667 13.5416 11.9465 13.5416 12.2917V12.7083C13.5416 13.0535 13.2618 13.3333 12.9166 13.3333C12.5714 13.3333 12.2916 13.0535 12.2916 12.7083V12.2917C12.2916 11.9465 12.5714 11.6667 12.9166 11.6667Z" fill="#F7F7F7"/>
<path fill-rule="evenodd" clip-rule="evenodd" d="M12.9166 9.16667C13.2618 9.16667 13.5416 9.44649 13.5416 9.79167V10.2083C13.5416 10.5535 13.2618 10.8333 12.9166 10.8333C12.5714 10.8333 12.2916 10.5535 12.2916 10.2083V9.79167C12.2916 9.44649 12.5714 9.16667 12.9166 9.16667Z" fill="#F7F7F7"/>
<path fill-rule="evenodd" clip-rule="evenodd" d="M12.9166 6.66667C13.2618 6.66667 13.5416 6.94649 13.5416 7.29167V7.70833C13.5416 8.05351 13.2618 8.33333 12.9166 8.33333C12.5714 8.33333 12.2916 8.05351 12.2916 7.70833V7.29167C12.2916 6.94649 12.5714 6.66667 12.9166 6.66667Z" fill="#F7F7F7"/>
</g>
</g>
</svg>
